<svg xmlns="http://www.w3.org/2000/svg" xmlns:xlink="http://www.w3.org/1999/xlink" width="1080" zoomAndPan="magnify" viewBox="0 0 810 1012.49997" height="1350" preserveAspectRatio="xMidYMid meet" version="1.2"><g id="837fb73af5"><path style=" stroke:none;fill-rule:nonzero;fill:#ffffff;fill-opacity:1;" d="M 196.96875 540.316406 L 196.96875 495.601562 L 241.695312 495.601562 L 241.695312 529.25 L 257.574219 529.25 L 257.574219 479.734375 L 181.105469 479.734375 L 181.105469 556.195312 L 230.070312 556.195312 L 230.070312 540.316406 Z M 196.96875 540.316406 "/><path style=" stroke:none;fill-rule:nonzero;fill:#ffffff;fill-opacity:1;" d="M 232.847656 565.003906 L 266.382812 565.003906 L 266.382812 531.472656 L 243.3125 531.472656 L 243.3125 540.921875 L 243.253906 542.648438 L 232.847656 542.648438 Z M 232.847656 565.003906 "/><path style=" stroke:none;fill-rule:nonzero;fill:#ffffff;fill-opacity:1;" d="M 232.847656 531.472656 L 241.03125 531.472656 L 241.03125 539.714844 L 232.847656 539.714844 Z M 232.847656 531.472656 "/><path style=" stroke:none;fill-rule:nonzero;fill:#ffffff;fill-opacity:1;" d="M 308.882812 541.816406 C 301.679688 541.816406 296.625 539.878906 293.71875 536.003906 C 290.808594 532.128906 289.355469 526.027344 289.355469 517.699219 C 289.355469 509.363281 290.820312 503.175781 293.753906 499.140625 C 296.6875 495.105469 301.730469 493.089844 308.882812 493.097656 C 316.023438 493.097656 321.078125 495.117188 324 499.140625 C 326.925781 503.164062 328.398438 509.375 328.398438 517.722656 C 328.398438 527.96875 325.984375 534.871094 321.148438 538.433594 L 326.890625 547.699219 L 318.164062 551.785156 L 311.941406 541.609375 C 310.929688 541.796875 309.910156 541.867188 308.882812 541.816406 Z M 301.222656 529.914062 C 302.585938 532.332031 305.136719 533.539062 308.882812 533.539062 C 312.628906 533.539062 315.167969 532.332031 316.53125 529.914062 C 317.898438 527.5 318.574219 523.449219 318.574219 517.722656 C 318.574219 511.996094 317.875 507.851562 316.496094 505.265625 C 315.117188 502.679688 312.570312 501.4375 308.882812 501.4375 C 305.199219 501.4375 302.648438 502.730469 301.257812 505.316406 C 299.867188 507.898438 299.179688 512.058594 299.179688 517.773438 C 299.179688 523.488281 299.867188 527.511719 301.222656 529.914062 Z M 301.222656 529.914062 "/><path style=" stroke:none;fill-rule:nonzero;fill:#ffffff;fill-opacity:1;" d="M 356.167969 506.378906 L 365.4375 506.378906 L 365.4375 540.996094 L 356.289062 540.996094 L 356.289062 539.050781 C 353.640625 540.703125 350.757812 541.628906 347.636719 541.816406 C 342.804688 541.816406 339.582031 540.492188 337.96875 537.839844 C 336.359375 535.191406 335.527344 530.761719 335.480469 524.550781 L 335.480469 506.425781 L 344.761719 506.425781 L 344.761719 524.695312 C 344.609375 527.078125 344.886719 529.410156 345.582031 531.691406 C 346.140625 532.898438 347.480469 533.5625 349.605469 533.5625 C 351.578125 533.574219 353.488281 533.25 355.347656 532.597656 L 356.253906 532.320312 Z M 356.167969 506.378906 "/><path style=" stroke:none;fill-rule:nonzero;fill:#ffffff;fill-opacity:1;" d="M 400.542969 517.144531 L 400.542969 531.535156 C 400.558594 532.347656 400.742188 533.121094 401.097656 533.855469 C 401.546875 534.40625 402.121094 534.71875 402.828125 534.796875 L 402.546875 541.78125 C 400.648438 541.824219 398.769531 541.664062 396.90625 541.296875 C 395.367188 540.914062 393.949219 540.269531 392.652344 539.363281 C 389.445312 540.953125 386.054688 541.761719 382.476562 541.78125 C 375.324219 541.78125 371.746094 537.996094 371.746094 530.433594 C 371.746094 526.738281 372.738281 524.113281 374.71875 522.570312 C 376.699219 521.023438 379.746094 520.113281 383.855469 519.835938 L 391.261719 519.28125 L 391.261719 517.144531 C 391.328125 516.605469 391.277344 516.078125 391.109375 515.5625 C 390.941406 515.042969 390.667969 514.589844 390.296875 514.195312 C 389.347656 513.566406 388.308594 513.300781 387.175781 513.398438 L 374.164062 513.953125 L 373.882812 507.515625 C 378.492188 506.222656 383.191406 505.554688 387.976562 505.507812 C 392.433594 505.507812 395.636719 506.4375 397.640625 508.273438 C 399.648438 510.113281 400.542969 513.121094 400.542969 517.144531 Z M 384.964844 526.277344 C 384.695312 526.269531 384.429688 526.285156 384.164062 526.332031 C 383.898438 526.382812 383.640625 526.457031 383.390625 526.558594 C 383.140625 526.660156 382.90625 526.789062 382.683594 526.941406 C 382.460938 527.097656 382.261719 527.273438 382.074219 527.46875 C 381.890625 527.667969 381.730469 527.878906 381.59375 528.113281 C 381.457031 528.34375 381.34375 528.589844 381.257812 528.84375 C 381.171875 529.101562 381.117188 529.363281 381.085938 529.628906 C 381.058594 529.898438 381.058594 530.167969 381.085938 530.433594 C 381.085938 532.972656 382.222656 534.238281 384.484375 534.238281 C 386.433594 534.214844 388.34375 533.933594 390.222656 533.40625 L 391.261719 533.128906 L 391.261719 525.722656 Z M 384.964844 526.277344 "/><path style=" stroke:none;fill-rule:nonzero;fill:#ffffff;fill-opacity:1;" d="M 409.824219 492.53125 L 419.128906 492.53125 L 419.128906 540.996094 L 409.824219 540.996094 Z M 409.824219 492.53125 "/><path style=" stroke:none;fill-rule:nonzero;fill:#ffffff;fill-opacity:1;" d="M 428.09375 501.945312 L 428.09375 492.53125 L 437.375 492.53125 L 437.375 501.945312 Z M 428.09375 540.996094 L 428.09375 506.378906 L 437.375 506.378906 L 437.375 540.996094 Z M 428.09375 540.996094 "/><path style=" stroke:none;fill-rule:nonzero;fill:#ffffff;fill-opacity:1;" d="M 456.890625 514.269531 L 456.890625 540.996094 L 447.621094 540.996094 L 447.621094 514.269531 L 443.875 514.269531 L 443.875 506.378906 L 447.621094 506.378906 L 447.621094 504.855469 C 447.621094 499.867188 448.359375 496.398438 449.835938 494.535156 C 451.308594 492.675781 453.941406 491.699219 457.726562 491.699219 C 459.890625 491.746094 462.039062 491.980469 464.167969 492.398438 L 465.617188 492.605469 L 465.484375 500.144531 C 463.453125 500.058594 461.75 500.011719 460.359375 500.011719 C 459.832031 499.9375 459.324219 499.996094 458.832031 500.195312 C 458.335938 500.390625 457.925781 500.695312 457.59375 501.109375 C 457.027344 502.320312 456.792969 503.59375 456.890625 504.929688 L 456.890625 506.378906 L 465.277344 506.378906 L 465.277344 514.269531 Z M 456.890625 514.269531 "/><path style=" stroke:none;fill-rule:nonzero;fill:#ffffff;fill-opacity:1;" d="M 470.679688 501.945312 L 470.679688 492.53125 L 479.949219 492.53125 L 479.949219 501.945312 Z M 470.679688 540.996094 L 470.679688 506.378906 L 479.949219 506.378906 L 479.949219 540.996094 Z M 470.679688 540.996094 "/><path style=" stroke:none;fill-rule:nonzero;fill:#ffffff;fill-opacity:1;" d="M 501.484375 505.542969 C 504.585938 505.625 507.65625 505.996094 510.691406 506.65625 L 512.5625 507.066406 L 512.285156 514.402344 C 508.636719 514.039062 505.9375 513.855469 504.191406 513.855469 C 500.96875 513.855469 498.851562 514.539062 497.84375 515.898438 C 496.804688 517.253906 496.296875 519.824219 496.296875 523.609375 C 496.296875 527.390625 496.804688 530 497.84375 531.402344 C 498.882812 532.800781 501.023438 533.515625 504.25 533.515625 L 512.285156 532.960938 L 512.5625 540.367188 C 508.84375 541.183594 505.082031 541.667969 501.277344 541.816406 C 496.152344 541.816406 492.472656 540.375 490.230469 537.492188 C 487.992188 534.605469 486.871094 529.980469 486.871094 523.609375 C 486.871094 517.234375 488.027344 512.632812 490.339844 509.796875 C 492.652344 506.960938 496.367188 505.542969 501.484375 505.542969 Z M 501.484375 505.542969 "/><path style=" stroke:none;fill-rule:nonzero;fill:#ffffff;fill-opacity:1;" d="M 545.929688 517.144531 L 545.929688 531.535156 C 545.945312 532.347656 546.128906 533.121094 546.484375 533.855469 C 546.929688 534.40625 547.507812 534.71875 548.210938 534.796875 L 547.945312 541.78125 C 546.046875 541.824219 544.167969 541.664062 542.304688 541.296875 C 540.761719 540.914062 539.339844 540.269531 538.039062 539.363281 C 534.832031 540.953125 531.441406 541.761719 527.863281 541.78125 C 520.707031 541.78125 517.132812 537.996094 517.132812 530.433594 C 517.132812 526.738281 518.121094 524.113281 520.105469 522.570312 C 522.085938 521.023438 525.144531 520.152344 529.253906 519.835938 L 536.660156 519.28125 L 536.660156 517.144531 C 536.726562 516.605469 536.675781 516.074219 536.503906 515.558594 C 536.332031 515.042969 536.058594 514.589844 535.679688 514.195312 C 534.738281 513.566406 533.703125 513.300781 532.574219 513.398438 L 519.546875 513.953125 L 519.28125 507.515625 C 523.886719 506.222656 528.578125 505.554688 533.359375 505.507812 C 537.820312 505.507812 541.023438 506.4375 543.027344 508.273438 C 545.035156 510.113281 545.929688 513.121094 545.929688 517.144531 Z M 530.304688 526.3125 C 530.035156 526.304688 529.765625 526.324219 529.5 526.371094 C 529.234375 526.417969 528.976562 526.492188 528.730469 526.59375 C 528.480469 526.699219 528.246094 526.824219 528.023438 526.980469 C 527.800781 527.132812 527.597656 527.308594 527.414062 527.503906 C 527.230469 527.703125 527.070312 527.917969 526.929688 528.148438 C 526.792969 528.378906 526.683594 528.625 526.597656 528.878906 C 526.511719 529.136719 526.453125 529.398438 526.425781 529.667969 C 526.394531 529.933594 526.394531 530.203125 526.425781 530.46875 C 526.425781 533.007812 527.5625 534.277344 529.820312 534.277344 C 531.773438 534.25 533.691406 533.972656 535.574219 533.441406 L 536.613281 533.164062 L 536.613281 525.757812 Z M 530.304688 526.3125 "/><path style=" stroke:none;fill-rule:nonzero;fill:#ffffff;fill-opacity:1;" d="M 554.796875 540.996094 L 554.796875 506.378906 L 564.007812 506.378906 L 564.007812 510.003906 C 567.4375 507.863281 571.128906 506.363281 575.078125 505.496094 L 575.078125 514.847656 C 571.34375 515.632812 568.128906 516.429688 565.410156 517.265625 L 564.019531 517.746094 L 564.019531 540.945312 Z M 554.796875 540.996094 "/><path style=" stroke:none;fill-rule:nonzero;fill:#ffffff;fill-opacity:1;" d="M 580.902344 502.367188 L 580.902344 493.910156 L 615.5 493.910156 L 615.5 502.367188 L 603.039062 502.367188 L 603.039062 541.03125 L 593.492188 541.03125 L 593.492188 502.367188 Z M 580.902344 502.367188 "/><path style=" stroke:none;fill-rule:nonzero;fill:#ffffff;fill-opacity:1;" d="M 620.683594 501.957031 L 620.683594 492.542969 L 629.949219 492.542969 L 629.949219 501.957031 Z M 620.683594 540.96875 L 620.683594 506.378906 L 629.949219 506.378906 L 629.949219 540.96875 Z M 620.683594 540.96875 "/></g></svg>