<svg xmlns="http://www.w3.org/2000/svg" xmlns:xlink="http://www.w3.org/1999/xlink" width="1080" zoomAndPan="magnify" viewBox="0 0 810 1012.49997" height="1350" preserveAspectRatio="xMidYMid meet" version="1.2"><g id="1223a6fe2e"><path style=" stroke:none;fill-rule:nonzero;fill:#000000;fill-opacity:1;" d="M 115.21875 530.113281 L 115.21875 468.828125 L 176.503906 468.828125 L 176.503906 514.945312 L 198.265625 514.945312 L 198.265625 447.085938 L 93.476562 447.085938 L 93.476562 551.871094 L 160.574219 551.871094 L 160.574219 530.113281 Z M 115.21875 530.113281 "/><path style=" stroke:none;fill-rule:nonzero;fill:#000000;fill-opacity:1;" d="M 164.382812 563.945312 L 210.335938 563.945312 L 210.335938 517.992188 L 178.726562 517.992188 L 178.726562 530.941406 L 178.625 533.308594 L 164.382812 533.308594 Z M 164.382812 563.945312 "/><path style=" stroke:none;fill-rule:nonzero;fill:#000000;fill-opacity:1;" d="M 164.382812 517.992188 L 175.59375 517.992188 L 175.59375 529.285156 L 164.382812 529.285156 Z M 164.382812 517.992188 "/><path style=" stroke:none;fill-rule:nonzero;fill:#000000;fill-opacity:1;" d="M 268.558594 532.167969 C 258.6875 532.167969 251.765625 529.511719 247.792969 524.203125 C 243.820312 518.890625 241.828125 510.53125 241.816406 499.113281 C 241.816406 487.6875 243.820312 479.210938 247.828125 473.679688 C 251.832031 468.148438 258.746094 465.390625 268.558594 465.398438 C 278.363281 465.398438 285.273438 468.160156 289.289062 473.679688 C 293.308594 479.199219 295.316406 487.6875 295.316406 499.148438 C 295.316406 513.191406 292.007812 522.652344 285.382812 527.53125 L 293.265625 540.230469 L 281.308594 545.828125 L 272.765625 531.886719 C 271.375 532.144531 269.972656 532.238281 268.558594 532.167969 Z M 258.078125 515.855469 C 259.949219 519.167969 263.441406 520.824219 268.558594 520.824219 C 273.675781 520.824219 277.1875 519.167969 279.039062 515.855469 C 280.894531 512.542969 281.839844 506.996094 281.839844 499.148438 C 281.839844 491.296875 280.894531 485.617188 278.992188 482.074219 C 277.085938 478.53125 273.625 476.824219 268.558594 476.824219 C 263.492188 476.824219 260.03125 478.597656 258.125 482.140625 C 256.222656 485.683594 255.210938 491.316406 255.210938 499.148438 C 255.210938 506.980469 256.222656 512.5625 258.078125 515.855469 Z M 258.078125 515.855469 "/><path style=" stroke:none;fill-rule:nonzero;fill:#000000;fill-opacity:1;" d="M 333.355469 483.597656 L 346.070312 483.597656 L 346.070312 531.039062 L 333.453125 531.039062 L 333.453125 528.375 C 329.824219 530.640625 325.871094 531.90625 321.597656 532.167969 C 314.972656 532.167969 310.585938 530.34375 308.351562 526.71875 C 306.113281 523.09375 304.9375 517 304.9375 508.503906 L 304.9375 483.664062 L 317.640625 483.664062 L 317.640625 508.703125 C 317.4375 511.96875 317.816406 515.164062 318.78125 518.289062 C 319.542969 519.945312 321.382812 520.855469 324.28125 520.855469 C 326.984375 520.871094 329.613281 520.429688 332.164062 519.53125 L 333.386719 519.152344 Z M 333.355469 483.597656 "/><path style=" stroke:none;fill-rule:nonzero;fill:#000000;fill-opacity:1;" d="M 394.175781 498.351562 L 394.175781 518.074219 C 394.1875 519.191406 394.441406 520.253906 394.9375 521.253906 C 395.546875 522.015625 396.335938 522.449219 397.304688 522.546875 L 396.925781 532.117188 C 394.324219 532.179688 391.746094 531.957031 389.191406 531.453125 C 387.082031 530.9375 385.140625 530.054688 383.363281 528.804688 C 378.964844 530.988281 374.3125 532.09375 369.402344 532.117188 C 359.601562 532.117188 354.699219 526.933594 354.699219 516.566406 C 354.699219 511.5 356.0625 507.90625 358.789062 505.789062 C 361.515625 503.667969 365.6875 502.421875 371.308594 502.046875 L 381.460938 501.285156 L 381.460938 498.351562 C 381.550781 497.613281 381.484375 496.890625 381.25 496.183594 C 381.019531 495.476562 380.648438 494.851562 380.132812 494.3125 C 378.835938 493.457031 377.414062 493.089844 375.863281 493.21875 L 358.027344 493.980469 L 357.648438 485.15625 C 363.960938 483.386719 370.398438 482.472656 376.953125 482.40625 C 383.050781 482.40625 387.453125 483.679688 390.203125 486.199219 C 392.953125 488.714844 394.175781 492.839844 394.175781 498.351562 Z M 372.78125 510.921875 C 372.414062 510.90625 372.046875 510.933594 371.683594 510.996094 C 371.320312 511.0625 370.964844 511.164062 370.625 511.304688 C 370.28125 511.445312 369.960938 511.621094 369.65625 511.832031 C 369.351562 512.042969 369.074219 512.285156 368.820312 512.554688 C 368.570312 512.824219 368.347656 513.117188 368.160156 513.4375 C 367.972656 513.753906 367.820312 514.085938 367.703125 514.4375 C 367.585938 514.789062 367.507812 515.148438 367.46875 515.515625 C 367.425781 515.882812 367.425781 516.25 367.464844 516.617188 C 367.464844 520.09375 369.007812 521.832031 372.121094 521.832031 C 374.792969 521.796875 377.414062 521.414062 379.984375 520.691406 L 381.410156 520.308594 L 381.410156 510.160156 Z M 372.78125 510.921875 "/><path style=" stroke:none;fill-rule:nonzero;fill:#000000;fill-opacity:1;" d="M 406.894531 464.621094 L 419.59375 464.621094 L 419.59375 531.039062 L 406.894531 531.039062 Z M 406.894531 464.621094 "/><path style=" stroke:none;fill-rule:nonzero;fill:#000000;fill-opacity:1;" d="M 431.933594 477.519531 L 431.933594 464.621094 L 444.648438 464.621094 L 444.648438 477.519531 Z M 431.933594 531.039062 L 431.933594 483.597656 L 444.648438 483.597656 L 444.648438 531.039062 Z M 431.933594 531.039062 "/><path style=" stroke:none;fill-rule:nonzero;fill:#000000;fill-opacity:1;" d="M 471.390625 494.410156 L 471.390625 531.039062 L 458.691406 531.039062 L 458.691406 494.410156 L 453.558594 494.410156 L 453.558594 483.597656 L 458.691406 483.597656 L 458.691406 481.511719 C 458.691406 474.671875 459.703125 469.921875 461.722656 467.371094 C 463.742188 464.820312 467.351562 463.480469 472.535156 463.480469 C 475.503906 463.546875 478.445312 463.867188 481.359375 464.441406 L 483.347656 464.722656 L 483.164062 475.054688 C 480.382812 474.9375 478.03125 474.871094 476.144531 474.871094 C 475.425781 474.769531 474.726562 474.855469 474.050781 475.125 C 473.371094 475.390625 472.808594 475.8125 472.351562 476.378906 C 471.570312 478.039062 471.25 479.78125 471.390625 481.613281 L 471.390625 483.597656 L 482.882812 483.597656 L 482.882812 494.410156 Z M 471.390625 494.410156 "/><path style=" stroke:none;fill-rule:nonzero;fill:#000000;fill-opacity:1;" d="M 490.351562 477.519531 L 490.351562 464.621094 L 503.070312 464.621094 L 503.070312 477.519531 Z M 490.351562 531.039062 L 490.351562 483.597656 L 503.070312 483.597656 L 503.070312 531.039062 Z M 490.351562 531.039062 "/><path style=" stroke:none;fill-rule:nonzero;fill:#000000;fill-opacity:1;" d="M 532.496094 482.457031 C 536.75 482.570312 540.957031 483.078125 545.113281 483.980469 L 547.679688 484.542969 L 547.300781 494.59375 C 542.332031 494.097656 538.605469 493.847656 536.1875 493.847656 C 531.839844 493.847656 528.945312 494.78125 527.511719 496.648438 C 526.078125 498.511719 525.363281 502.035156 525.375 507.210938 C 525.375 512.410156 526.085938 515.972656 527.511719 517.894531 C 528.9375 519.8125 531.859375 520.78125 536.289062 520.789062 L 547.300781 520.027344 L 547.679688 530.179688 C 542.585938 531.300781 537.429688 531.964844 532.214844 532.167969 C 525.191406 532.167969 520.148438 530.191406 517.078125 526.238281 C 514.011719 522.285156 512.476562 515.945312 512.476562 507.210938 C 512.476562 498.480469 514.058594 492.171875 517.226562 488.285156 C 520.394531 484.398438 525.484375 482.457031 532.496094 482.457031 Z M 532.496094 482.457031 "/><path style=" stroke:none;fill-rule:nonzero;fill:#000000;fill-opacity:1;" d="M 593.402344 498.351562 L 593.402344 518.074219 C 593.421875 519.191406 593.675781 520.25 594.164062 521.253906 C 594.773438 522.007812 595.5625 522.441406 596.53125 522.546875 L 596.148438 532.117188 C 593.546875 532.179688 590.96875 531.957031 588.417969 531.453125 C 586.308594 530.933594 584.367188 530.050781 582.585938 528.804688 C 578.195312 530.988281 573.546875 532.089844 568.644531 532.117188 C 558.839844 532.117188 553.941406 526.933594 553.941406 516.566406 C 553.941406 511.5 555.296875 507.90625 558.011719 505.789062 C 560.730469 503.667969 564.902344 502.421875 570.53125 502.046875 L 580.683594 501.285156 L 580.683594 498.351562 C 580.777344 497.613281 580.707031 496.890625 580.476562 496.183594 C 580.242188 495.476562 579.871094 494.851562 579.359375 494.3125 C 578.0625 493.445312 576.640625 493.082031 575.085938 493.21875 L 557.25 493.980469 L 556.871094 485.15625 C 563.1875 483.390625 569.621094 482.472656 576.179688 482.40625 C 582.289062 482.40625 586.675781 483.679688 589.425781 486.199219 C 592.175781 488.714844 593.402344 492.839844 593.402344 498.351562 Z M 572.054688 510.871094 C 571.6875 510.859375 571.320312 510.882812 570.957031 510.949219 C 570.59375 511.011719 570.238281 511.117188 569.898438 511.257812 C 569.554688 511.398438 569.234375 511.574219 568.929688 511.785156 C 568.625 511.992188 568.347656 512.234375 568.09375 512.503906 C 567.84375 512.773438 567.621094 513.070312 567.433594 513.386719 C 567.246094 513.703125 567.09375 514.039062 566.976562 514.386719 C 566.859375 514.738281 566.78125 515.097656 566.742188 515.464844 C 566.699219 515.832031 566.699219 516.199219 566.738281 516.566406 C 566.738281 520.046875 568.296875 521.785156 571.394531 521.785156 C 574.066406 521.746094 576.6875 521.367188 579.257812 520.640625 L 580.683594 520.261719 L 580.683594 510.109375 Z M 572.054688 510.871094 "/><path style=" stroke:none;fill-rule:nonzero;fill:#000000;fill-opacity:1;" d="M 605.539062 531.039062 L 605.539062 483.597656 L 618.15625 483.597656 L 618.15625 488.566406 C 622.863281 485.636719 627.925781 483.578125 633.339844 482.390625 L 633.339844 495.207031 C 628.222656 496.28125 623.820312 497.375 620.09375 498.519531 L 618.191406 499.179688 L 618.191406 530.972656 Z M 605.539062 531.039062 "/><path style=" stroke:none;fill-rule:nonzero;fill:#000000;fill-opacity:1;" d="M 641.304688 478.101562 L 641.304688 466.507812 L 688.714844 466.507812 L 688.714844 478.101562 L 671.660156 478.101562 L 671.660156 531.089844 L 658.578125 531.089844 L 658.578125 478.101562 Z M 641.304688 478.101562 "/><path style=" stroke:none;fill-rule:nonzero;fill:#000000;fill-opacity:1;" d="M 695.835938 477.539062 L 695.835938 464.636719 L 708.535156 464.636719 L 708.535156 477.539062 Z M 695.835938 531.007812 L 695.835938 483.597656 L 708.535156 483.597656 L 708.535156 531.007812 Z M 695.835938 531.007812 "/></g></svg>